<?xml version="1.0" encoding="UTF-8"?>
<svg id="Layer_1" data-name="Layer 1" xmlns="http://www.w3.org/2000/svg" viewBox="0 0 360 360">
  <path d="M181.33,319.15h-3.19c-34.01-9.51-64.67-27.08-85.41-56.13-26.99-37.8-33.09-85.16-34.6-130.58-.21-6.25-1.62-16.79-.43-22.69,1.02-5.08,5.71-3.65,9.17-4.11,4.19-.56,8.3-1.39,12.37-2.5,3.3-.9,5.74-3.41,9.54-1.87,3.08,1.25,3.5,5.37,1.9,7.94-2.33,3.74-17.78,6.23-22.24,7.02-.2,22.23,1.03,45.1,4.72,67.05,9.38,55.8,34.69,98.17,88.93,119.27,3.99,1.55,12.48,4.95,16.38,5.4,7.05.81,31.79-10.79,38.81-14.74,59.98-33.72,72.46-101.29,74.02-164.98.09-3.87-.04-7.77-.1-11.63-.44-1.34-2.94-.76-4.3-1.01-29.08-5.55-50.75-26.93-53.59-56.88l-.8-.79-105.09-.07c-2.02.24-1.11,2.46-1.39,3.92-.74,3.87-3.27,15.8-5.94,18.22-2.47,2.24-7.57,1.47-8.62-1.93-1.16-3.73,1.16-5.95,2.04-9.17,1.11-4.07,1.94-8.18,2.5-12.37.51-3.78-1.05-7.75,4.11-9.17l117.81-.15c6.69.64,4.95,4.76,5.56,9.32,3.27,24.52,19.25,44.49,44.5,48.45,3.21.5,10.35.25,12.3,2.04.52.48,1.2,1.67,1.37,2.35.97,3.71.39,14.95.27,19.42-1.44,57.69-12.13,120.8-58.72,159.56-17.9,14.89-39.65,24.29-61.86,30.82Z"/>
  <path d="M178.58,110.56c52.37-.95,86.95,55.63,61.98,101.84-25.84,47.82-94.53,48.42-121.11,1.06-25.54-45.49,7.28-101.96,59.13-102.9ZM192.91,122.73c-8.66-1.79-17.7-1.79-26.36,0l-6.42,20.36,8.45,12.2c.9.54,18.86.56,21.01.3.75-.09.93-.06,1.55-.57.5-.41,7.23-9.62,7.64-10.43.24-.49.6-.9.55-1.5l-6.42-20.36ZM150.52,139.1l3.18-11.68c-5.71,3.01-11.39,6.53-15.4,11.68h12.22ZM221.16,139.1c-4.01-5.16-9.68-8.67-15.4-11.68l3.18,11.68h12.22ZM129.36,149.81c-2.04,4.5-4.42,8.81-5.78,13.61-.73,2.6-2.58,9.36-1.25,11.57l16.75,12.24,13.86-4.54,6.93-19.68c.4-.95.01-1.51-.39-2.31-.53-1.04-7.6-10.66-8.25-10.88h-21.87ZM230.11,149.81h-21.87c-.65.22-7.72,9.84-8.25,10.88-.4.8-.79,1.36-.39,2.31l6.93,19.68,13.84,4.54,16.77-12.23c1.33-2.19-.52-8.98-1.25-11.57-1.35-4.8-3.74-9.1-5.78-13.61ZM189.77,166.24h-20.08l-5.86,19,16.08,11.18,15.71-11.18-5.86-19ZM131.88,194.94l-10.04-6.98c.87,6.54,3.17,12.62,5.84,18.59.92.7,3.99-10.66,4.19-11.61ZM231.78,206.55c2.67-5.94,4.91-12.08,5.84-18.59l-10.12,7.22c.48.81,3.29,12.12,4.27,11.37ZM156.2,192.86l-13.67,4.9-6.67,20.23c2.69,3.82,16.64,15.38,20.74,15.12,2.83-.19,14.06-10.6,17.56-12.22.09-2.77,1.01-14.1-.27-15.65l-17.69-12.37ZM202.92,192.87l-17.34,12.35c-1.26,1.5-.37,12.93-.26,15.66,3.38,1.6,14.93,12.05,17.56,12.22,4.25.26,17.95-11.26,20.74-15.11l-6.67-20.23-14.02-4.89ZM189.29,237.35l-9.75-7.39-9.37,7.39c6.29.84,12.83.84,19.12,0Z"/>
  <path d="M269.44,132.78c-20.54-6.15-38.81-22.5-48.55-41.47-2.04-3.97-3.37-8.34-5.37-12.15l-71.91.17c-8.39,24.98-28.58,45.48-53.65,53.72,1.41,48.24,9.61,102.81,50.53,133.74,11.72,8.85,25.37,15.11,39.44,19.28,9.13-2.68,17.81-6.49,26.2-10.91,4.28-2.26,11.73-9.61,15.5-3.47,1.78,2.9.83,5.22-1.55,7.32-5.85,5.15-29.94,16.16-37.64,17.59-5.53,1.03-16.25-3.73-21.63-6.04-58.96-25.29-76.66-80.06-80.89-140.05-.44-6.22-1.26-15.26-1.03-21.2s9.56-6.7,14.13-8.71c16.4-7.21,31.02-21.92,38.13-38.35,2.34-5.42,2.36-13.19,9.03-13.81,25.08-2.33,53.72,1.8,79.18,0,6.38,0,7,9.21,9.18,14.19,7.18,16.35,21.96,31.04,38.35,38.13,5.05,2.19,13.54,2.58,13.69,9.04.22,9.75-1,22.56-2.03,32.4-2.2,21.09-6.86,43.94-15.15,63.46-1.85,4.35-9.7,20.95-13.01,23.1-4.2,2.73-9.37-.68-8.26-5.59.48-2.12,4.58-7.55,5.9-10.05,16.13-30.47,20.77-66.18,21.44-100.34Z"/>
  <path d="M107.87,89.87c5.32,4.93-2.7,12.96-7.64,7.64-4.56-4.92,2.74-12.18,7.64-7.64Z"/>
  <path d="M231.63,256.06c7.67-2.27,9.57,7.55,4.8,9.58-8.09,3.44-10.26-7.96-4.8-9.58Z"/>
</svg>