<?xml version="1.0" encoding="UTF-8"?>
<svg id="Layer_1" data-name="Layer 1" xmlns="http://www.w3.org/2000/svg" viewBox="0 0 360 360">
  <path d="M281.24,132.97c36.16,36.16,22.23,98.29-25.69,115.58-57.95,20.91-112.83-37.64-88.2-94.22,19.54-44.88,79.17-56.07,113.89-21.36ZM193.33,165.53l12.62,3.86,21.13-15.62-.17-12.78-19.33-14.14c-2.23-.55-9.67,4.51-11.81,6.03-1.91,1.36-9.95,7.58-10.02,9.48l7.58,23.17ZM269.8,165.53l7.58-23.17c-.07-1.9-8.11-8.12-10.02-9.48-2.14-1.52-9.58-6.58-11.81-6.03l-19.33,14.14-.17,12.78,21.14,15.62,12.61-3.86ZM202.94,177.84l-12.54-3.7-19.54,14.1c-1.7,2.95,4.89,22.2,8.09,25.37l24.29.17c.73-.22,8.39-9.64,7.39-11.53l-7.69-24.41ZM260.19,177.84l-7.69,24.41c-.99,1.9,6.67,11.31,7.39,11.53l24.29-.17c3.23-3.38,9.88-22.25,7.94-25.48l-19.39-13.99-12.54,3.7ZM218.23,209.04l-7.46,10.02,7.61,23.08c8.13,2.75,17.78,2.4,26.12.28l7.87-23.36c-.03-.59-6.28-9.1-6.83-9.55-.64-.53-.83-.5-1.6-.59-7.8-.95-17.67.7-25.7.12Z"/>
  <path d="M126.35,178.26c-.36-17-2.68-33.94-7.25-50.29-14.01-4.44-27.91-9.4-41.34-15.37-5.14-2.28-15.33-6.46-19.55-9.5s-1.65-9.07,3.62-8.02c3.06.61,11.4,5.84,15,7.48,12.52,5.71,25.4,10.79,38.55,14.87-6.08-18.07-16.13-35.94-29.57-49.61-2-2.04-11.09-8.96-11.66-10.26-1.42-3.24.64-6.65,4.23-6.48,2.87.13,12.14,8.8,14.55,11.26,15.87,16.23,26.19,37.17,33.65,58.42,5.68,1.8,11.49,3.29,17.3,4.62,6.5,1.49,15.09,2.23,21.08,4.13s4.09,8.66-1.05,8.75c-3.9.07-13.96-2.62-18.38-3.57-5.51-1.18-11.02-2.53-16.43-4.12,3.75,15.59,5.63,31.62,6.02,47.67h14.52c3.82,0,3.82,8.77,0,8.77h-14.52c-.22,16.46-2.64,32.72-6.02,48.77,5.76-1.75,11.64-3.35,17.52-4.66,4.32-.96,13.99-3.6,17.83-3.57,4.69.04,6.32,6.73,1.48,8.64-4.19,1.65-13.19,2.5-18.22,3.7-7.31,1.74-14.66,3.51-21.78,5.89-7.21,21.62-18.89,43.72-35.46,59.62-2.13,2.04-9.58,8.68-12.08,8.79-3.72.17-5.89-3.63-4.04-6.83,19.23-14.72,32.67-35.85,41.04-58.41-18.35,5.77-36.21,13.01-53.56,21.25-5.34,1.06-7.93-5.1-3.27-8.21,3.8-2.54,12.77-5.86,17.39-7.82,14.02-5.97,28.46-10.67,42.77-15.87,5.04-16.58,7.18-33.96,7.63-51.28H59.22c-3.82,0-3.82-8.77,0-8.77h67.13Z"/>
  <path d="M194.3,280.18c9.34-2.47,18.49-5.57,27.83-8.06,15.91-4.24,30.26-5.95,44.87-14.31,56.2-32.14,58.13-112.95,3.75-148.06-15.87-10.25-30.9-11.87-48.63-16.58-9.25-2.46-18.34-5.47-27.55-8.07-.79.33-.04,1.04.16,1.48,1.93,4.37,7.68,15.48,7.81,19.64.15,4.7-5.8,6.45-8.36,1.74-1.82-3.36-3.15-8.8-4.9-12.64-2.45-5.36-5.46-10.49-8.72-15.39-15.08-5.93-29.77-12.76-43.8-20.86-3.74-3.77-.33-9.29,4.77-7.51,3.16,1.1,8.32,4.79,11.64,6.44,21.53,10.71,44.02,19.61,67.3,25.86,13.59,3.65,28.11,5.5,41.04,11.02,66.22,28.28,78.11,118.31,21.25,162.83-21.33,16.7-39.64,17.46-64.48,24.29-22.46,6.17-44.31,14.95-65.1,25.31-2.72,1.36-11.2,6.8-13.43,6.9-4.47.2-6.37-5.17-2.98-7.96,4.16-3.43,16.84-9.19,22.25-11.73,7.06-3.31,14.36-6.1,21.54-9.15,3.26-4.9,6.27-10.03,8.72-15.39,1.71-3.74,3.24-9.91,5.09-12.99,2.15-3.59,7.26-2.93,8.03.59,1.06,4.83-6.7,17.42-8.11,22.61Z"/>
</svg>