<?xml version="1.0" encoding="UTF-8"?>
<svg id="Layer_1" data-name="Layer 1" xmlns="http://www.w3.org/2000/svg" viewBox="0 0 360 360">
  <path d="M52.93,312.81c-6.71-5.33.06-9.02,6.22-7.78v-69.76c0-2.54,4.16-4.73,6.46-4.95,5.67-.55,22.67-.76,28,.06,1.87.29,5.48,3.13,5.48,4.89v69.76h10.37v-94.66c0-2.34,3.71-5.08,6.01-5.4,5.68-.81,20.98-.6,26.95-.07,3.7.33,7.5,2.94,7.5,7.02v93.1h9.85v-144.97c0-2.46,3.67-5.43,6.09-5.84,4.11-.69,24.8-.71,28.69.11,2.24.47,5.68,3.43,5.68,5.73v144.97h9.85v-118.51c0-.45,1.25-3.51,1.63-4.07,3.22-4.73,16.45-4.28,13.03,3.17-1.04,2.27-4.02,1.52-6.02,1.76l-.86.7v116.96h24.9v-117.74c-2.38-.03-5.28.61-6.63-1.93-3.38-6.38,8.8-8.13,12.85-3,.29.37,1.56,2.44,1.56,2.59v120.07h10.37V108.71c0-3.23,5.29-5.23,8.02-5.46,6.04-.52,18.96-.62,24.86.08,3.12.37,5.29,1.82,6.83,4.58l.26,94.19c-.68,5.25-7.81,3.22-7.81-.55v-90.51h-24.38v193.98h24.38v-85.84c0-4.23,7.78-4.2,7.78-1.04v86.88c6.16-1.24,12.94,2.45,6.22,7.78H52.93ZM192.45,161.88h-24.9v143.15h24.9v-143.15ZM142.14,212.7h-24.9v92.32h24.9v-92.32ZM91.31,238.12h-24.38v66.91h24.38v-66.91Z"/>
  <path d="M95.02,185.82c1.29,11.2-6.63,21.08-18.36,19.49-5.48-.74-10.78-5-12.57-10.25-5.68-16.73,14.64-28.66,26.71-16.3l23.08-11.15c-2.72-13.25,11.52-23.93,23.42-17.22l28.45-27.95c.56-1.25-1.78-5.78-1.85-8.05-.16-5.02,2.9-10.95,7-13.73,12.19-8.24,27.41,2.36,24.74,16.52l22.19,11.29c5.3-4.3,11.23-7.07,18.1-4.5l33.02-49.75c-9.06-11.29-1.35-28.19,13.47-26.96,18.67,1.55,20.71,31.89-3.65,31.66-1.31-.01-2.59-.98-3.63-.07l-32.71,49.3c10.11,12.3-.68,30.3-16.31,26.25-5.21-1.35-10.69-7.13-11.32-12.54-.21-1.84.45-5.55-.57-6.69l-21.77-10.93c-2,1.12-3.33,2.87-5.53,3.87-5.52,2.49-9.94,1.63-15.38-.39l-28.3,28.62c8.79,17.53-12.13,31.77-26.18,18.59l-22.05,10.89ZM286.67,57.28c-7.12-7.1-18.94,3.44-11.76,11.5s19.7-3.59,11.76-11.5ZM179.82,105.54c-10.74.21-10.21,16.77.42,16.43,10.69-.35,10.14-16.64-.42-16.43ZM229.15,130.87c-9.25,1.32-8.74,16.37,1.33,16.3,11.44-.09,10.24-17.95-1.33-16.3ZM123.64,170c8.01,8.03,19.42-4.72,11.5-11.76-8.06-7.18-18.6,4.64-11.5,11.76ZM73.33,195.41c7.12,7.1,18.94-3.44,11.76-11.5s-19.79,3.5-11.76,11.5Z"/>
</svg>