<?xml version="1.0" encoding="UTF-8"?>
<svg id="Layer_1" data-name="Layer 1" xmlns="http://www.w3.org/2000/svg" viewBox="0 0 360 360">
  <path d="M55.99,316.85h-4.18c-2.99-1.55-4.19-2.76-5.74-5.74v-4.18l2.34-3.67,55.89-55.84c8.34-6.72,17.92,2.88,11.2,11.2l-55.84,55.89-3.67,2.34Z"/>
  <path d="M46.07,256.8l1.81-3.15,36.12-35.93c7.32-4.29,15.52,4.02,10.63,11.15l-36.57,36.53c-5.17,2.69-10.01.26-11.99-4.94v-3.66Z"/>
  <path d="M102.46,316.85c-5.2-1.97-7.63-6.82-4.94-11.99l36.53-36.57c7.13-4.89,15.45,3.31,11.15,10.63l-35.93,36.12-3.15,1.81h-3.66Z"/>
  <path d="M197.91,49.66c86.08-5.49,144.57,88.02,100.78,162.91-41.81,71.49-145.7,71.88-187.44.19-40.61-69.74,6.56-158,86.66-163.11ZM183.39,68.3l21.58,15.06,21.22-15.31c.03-.83-9.5-2.21-10.7-2.34-8.58-.94-17.43-.73-25.95.67-.67.11-6.74,1.07-6.16,1.93ZM196.86,113.63l-.16-16.6-31.4-22.89c-10.42,4.81-19.88,11.8-27.78,20.12l12.32,37.75,14.93,4.57,32.09-22.95ZM212.75,97.14l.37,16.37,32.12,23.17,15.16-5.21,11.77-36.79c-7.04-8.85-17.25-15.51-27.42-20.46l-31.99,22.9ZM112.39,150.81l21.8-15.9-8.24-25.34c-.8.29-1.41,1.83-1.83,2.6-6.53,11.87-10.76,25.05-11.73,38.65ZM297.22,150.28c-.91-14.15-5.48-29.05-13.57-40.72l-7.72,25.26,21.29,15.46ZM186.6,183.11l36.5-.17,11.23-34.76-29.27-20.85c-1.13-.03-15.95,10.96-18.18,12.61-2.54,1.88-8.82,5.83-10.55,7.73-.36.4-.8.65-.75,1.29l11.01,34.15ZM159.77,151.45l-15.07-4.57-31.54,22.72c-.99,1.61,2.44,13.99,3.26,16.58,1.75,5.55,4.1,10.98,6.92,16.05l38.9.25c1.21-.24,4.93-5.69,5.92-7.13,1.2-1.75,3.88-4.68,3.74-6.62l-12.12-37.28ZM246.68,202.38l39.58-.14c1.7-.82,6.68-14.55,7.44-17.1.85-2.85,3.82-13.36,2.74-15.55l-31.42-22.84-14.77,4.85-12.5,37.59,8.94,13.19ZM221.96,249.42l12.12-37.28-8.66-12.77-1.53-.56c-11.71,1.2-26.3-1.49-37.65,0-.67.09-.99.12-1.58.51-.79.52-9.01,11.95-8.99,12.73l12.14,36.92,16.72,2.12,17.41-1.69ZM161.46,218.16h-27.15c9.52,11.05,21.47,19.97,34.98,25.59l-7.83-25.59ZM275.29,218.16h-26.63l-8.09,25.59c13.14-5.81,25.81-14.26,34.72-25.59Z"/>
</svg>